<?xml version="1.0" standalone="no"?>
<!DOCTYPE svg PUBLIC "-//W3C//DTD SVG 20010904//EN"
 "http://www.w3.org/TR/2001/REC-SVG-20010904/DTD/svg10.dtd">
<svg version="1.0" xmlns="http://www.w3.org/2000/svg"
 width="512.000000pt" height="512.000000pt" viewBox="0 0 512.000000 512.000000"
 preserveAspectRatio="xMidYMid meet">

<g transform="translate(0.000000,512.000000) scale(0.100000,-0.100000)"
fill="#000000" stroke="none">
<path d="M2315 5109 c-800 -83 -1501 -518 -1927 -1196 -604 -961 -490 -2237
274 -3068 425 -462 951 -737 1583 -827 119 -17 512 -16 635 1 623 86 1150 361
1572 821 353 384 572 858 650 1405 17 118 17 512 0 630 -70 491 -250 916 -544
1284 -93 117 -272 296 -393 394 -360 290 -782 474 -1250 543 -123 18 -478 26
-600 13z m996 -1356 l750 -468 -751 -3 c-412 -1 -1087 -1 -1500 0 l-750 3 642
400 c352 220 689 430 747 467 58 37 108 67 109 67 2 1 341 -209 753 -466z
m-1586 -923 c859 -536 780 -490 834 -490 30 0 60 8 86 23 22 13 324 200 670
416 347 216 662 413 700 437 l70 43 3 -775 c2 -773 2 -775 -19 -825 -25 -58
-101 -131 -157 -151 -30 -10 -291 -13 -1357 -13 -1206 0 -1323 1 -1356 17 -56
25 -120 88 -145 143 l-24 50 0 778 0 779 33 -19 c17 -11 316 -197 662 -413z"/>
</g>
</svg>
