<?xml version="1.0" standalone="no"?>
<!DOCTYPE svg PUBLIC "-//W3C//DTD SVG 20010904//EN"
 "http://www.w3.org/TR/2001/REC-SVG-20010904/DTD/svg10.dtd">
<svg version="1.0" xmlns="http://www.w3.org/2000/svg"
 width="512.000000pt" height="512.000000pt" viewBox="0 0 512.000000 512.000000"
 preserveAspectRatio="xMidYMid meet">

<g transform="translate(0.000000,512.000000) scale(0.100000,-0.100000)"
fill="#000000" stroke="none">
<path d="M2315 5109 c-800 -83 -1501 -518 -1927 -1196 -487 -774 -516 -1777
-75 -2578 200 -364 487 -676 841 -913 238 -159 600 -311 876 -366 214 -43 295
-51 530 -51 236 0 333 10 532 51 880 184 1615 842 1898 1702 92 278 125 491
125 802 0 301 -32 513 -116 775 -124 390 -330 728 -622 1024 -399 404 -893
653 -1462 737 -123 18 -478 26 -600 13z m355 -1193 c146 -10 322 -75 457 -168
370 -255 532 -730 393 -1150 -16 -48 -43 -115 -60 -148 -48 -95 -783 -1193
-819 -1223 -43 -36 -111 -39 -163 -9 -32 19 -789 1149 -842 1257 -74 151 -101
293 -93 482 6 159 30 251 102 398 157 322 464 534 815 564 47 4 96 6 110 5 14
-2 59 -5 100 -8z"/>
<path d="M2425 3393 c-242 -87 -364 -341 -276 -573 111 -292 498 -374 718
-152 212 215 150 569 -121 702 -63 31 -79 35 -170 38 -77 2 -113 -2 -151 -15z"/>
</g>
</svg>
